<svg width="1200" height="760" viewBox="0 0 1200 760" fill="none" xmlns="http://www.w3.org/2000/svg">
  <rect width="1200" height="760" rx="48" fill="#F7F7F4"/>
  <rect x="56" y="54" width="1088" height="652" rx="44" fill="#FFFFFF" stroke="#E7E2DA"/>

  <g transform="translate(104 112)">
    <rect width="286" height="536" rx="42" fill="#111111"/>
    <rect x="16" y="16" width="254" height="504" rx="32" fill="#FAFAF7"/>
    <text x="36" y="64" font-family="Inter, Arial, sans-serif" font-size="18" font-weight="700" fill="#111111">PitchCoach</text>
    <text x="36" y="92" font-family="Inter, Arial, sans-serif" font-size="11" fill="#77716A">Chromatic voice mode</text>
    <circle cx="143" cy="214" r="96" fill="#F2F4F1" stroke="#E3DED5"/>
    <path d="M70 214C93 155 193 155 216 214" stroke="#D8D2C7" stroke-width="10" stroke-linecap="round"/>
    <path d="M143 137V125" stroke="#111111" stroke-width="4" stroke-linecap="round"/>
    <path d="M143 214L160 142" stroke="#1D9A61" stroke-width="5" stroke-linecap="round"/>
    <circle cx="160" cy="142" r="8" fill="#1D9A61"/>
    <text x="117" y="250" font-family="Inter, Arial, sans-serif" font-size="52" font-weight="800" fill="#111111">C5</text>
    <text x="110" y="284" font-family="Inter, Arial, sans-serif" font-size="17" font-weight="700" fill="#1D9A61">+4 cents</text>
    <rect x="36" y="334" width="214" height="8" rx="4" fill="#E6E2DB"/>
    <rect x="36" y="334" width="154" height="8" rx="4" fill="#111111"/>
    <rect x="36" y="372" width="96" height="52" rx="18" fill="#111111"/>
    <rect x="154" y="372" width="96" height="52" rx="18" fill="#ECE8E1"/>
    <circle cx="84" cy="398" r="11" fill="#FFFFFF"/>
    <path d="M194 388V408M184 398H204" stroke="#111111" stroke-width="4" stroke-linecap="round"/>
    <rect x="72" y="472" width="142" height="34" rx="17" fill="#111111"/>
    <circle cx="108" cy="489" r="5" fill="#FFFFFF"/>
    <circle cx="143" cy="489" r="5" fill="#A0A0A0"/>
    <circle cx="178" cy="489" r="5" fill="#A0A0A0"/>
  </g>

  <g transform="translate(457 112)">
    <rect width="286" height="536" rx="42" fill="#111111"/>
    <rect x="16" y="16" width="254" height="504" rx="32" fill="#FAFAF7"/>
    <text x="36" y="64" font-family="Inter, Arial, sans-serif" font-size="18" font-weight="700" fill="#111111">Guitar</text>
    <text x="36" y="92" font-family="Inter, Arial, sans-serif" font-size="11" fill="#77716A">Locked string tuning</text>
    <rect x="36" y="126" width="214" height="44" rx="22" fill="#ECE8E1"/>
    <rect x="41" y="131" width="84" height="34" rx="17" fill="#111111"/>
    <text x="62" y="153" font-family="Inter, Arial, sans-serif" font-size="12" font-weight="700" fill="#FFFFFF">E Std</text>
    <text x="146" y="153" font-family="Inter, Arial, sans-serif" font-size="12" font-weight="700" fill="#77716A">Drop D</text>
    <g transform="translate(42 204)">
      <rect width="202" height="164" rx="28" fill="#111111"/>
      <line x1="38" y1="26" x2="38" y2="136" stroke="#736B61" stroke-width="3"/>
      <line x1="64" y1="26" x2="64" y2="136" stroke="#736B61" stroke-width="3"/>
      <line x1="90" y1="26" x2="90" y2="136" stroke="#736B61" stroke-width="3"/>
      <line x1="116" y1="26" x2="116" y2="136" stroke="#736B61" stroke-width="3"/>
      <line x1="142" y1="26" x2="142" y2="136" stroke="#736B61" stroke-width="3"/>
      <line x1="168" y1="26" x2="168" y2="136" stroke="#736B61" stroke-width="3"/>
      <circle cx="38" cy="82" r="18" fill="#F0B23D"/>
      <text x="27" y="88" font-family="Inter, Arial, sans-serif" font-size="16" font-weight="800" fill="#111111">E</text>
      <circle cx="64" cy="82" r="11" fill="#FFFFFF"/>
      <circle cx="90" cy="82" r="11" fill="#FFFFFF"/>
      <circle cx="116" cy="82" r="11" fill="#FFFFFF"/>
      <circle cx="142" cy="82" r="11" fill="#FFFFFF"/>
      <circle cx="168" cy="82" r="11" fill="#FFFFFF"/>
    </g>
    <text x="96" y="424" font-family="Inter, Arial, sans-serif" font-size="52" font-weight="800" fill="#111111">E2</text>
    <text x="98" y="455" font-family="Inter, Arial, sans-serif" font-size="16" font-weight="700" fill="#1D9A61">82.4 Hz  ·  -2 cents</text>
    <rect x="36" y="482" width="92" height="38" rx="19" fill="#111111"/>
    <path d="M70 494L96 501L70 508V494Z" fill="#FFFFFF"/>
    <rect x="150" y="482" width="100" height="38" rx="19" fill="#ECE8E1"/>
    <text x="175" y="506" font-family="Inter, Arial, sans-serif" font-size="13" font-weight="700" fill="#111111">Tone</text>
  </g>

  <g transform="translate(810 112)">
    <rect width="286" height="536" rx="42" fill="#111111"/>
    <rect x="16" y="16" width="254" height="504" rx="32" fill="#FAFAF7"/>
    <text x="36" y="64" font-family="Inter, Arial, sans-serif" font-size="18" font-weight="700" fill="#111111">History</text>
    <text x="36" y="92" font-family="Inter, Arial, sans-serif" font-size="11" fill="#77716A">Local files and playback</text>
    <rect x="36" y="126" width="214" height="104" rx="26" fill="#111111"/>
    <text x="58" y="162" font-family="Inter, Arial, sans-serif" font-size="13" font-weight="700" fill="#FFFFFF">Practice take</text>
    <text x="58" y="190" font-family="Inter, Arial, sans-serif" font-size="30" font-weight="800" fill="#FFFFFF">9 cents</text>
    <text x="58" y="214" font-family="Inter, Arial, sans-serif" font-size="11" fill="#B8B3AC">Avg absolute deviation</text>
    <rect x="36" y="256" width="214" height="78" rx="24" fill="#ECE8E1"/>
    <circle cx="72" cy="295" r="18" fill="#111111"/>
    <path d="M67 285L83 295L67 305V285Z" fill="#FFFFFF"/>
    <rect x="108" y="284" width="112" height="6" rx="3" fill="#D5CEC4"/>
    <rect x="108" y="284" width="70" height="6" rx="3" fill="#111111"/>
    <text x="108" y="313" font-family="Inter, Arial, sans-serif" font-size="11" font-weight="700" fill="#77716A">WAV replay</text>
    <rect x="36" y="360" width="214" height="78" rx="24" fill="#ECE8E1"/>
    <path d="M64 398C82 376 102 421 120 398C138 376 158 421 176 398C194 376 212 421 230 398" stroke="#F0B23D" stroke-width="6" stroke-linecap="round"/>
    <text x="58" y="462" font-family="Inter, Arial, sans-serif" font-size="12" font-weight="700" fill="#111111">CSV analysis + note events</text>
    <rect x="72" y="472" width="142" height="34" rx="17" fill="#111111"/>
    <circle cx="108" cy="489" r="5" fill="#A0A0A0"/>
    <circle cx="143" cy="489" r="5" fill="#A0A0A0"/>
    <circle cx="178" cy="489" r="5" fill="#FFFFFF"/>
  </g>
</svg>
